<?xml version="1.0" standalone="no"?>
<!DOCTYPE svg PUBLIC "-//W3C//DTD SVG 20010904//EN"
 "http://www.w3.org/TR/2001/REC-SVG-20010904/DTD/svg10.dtd">
<svg version="1.0" xmlns="http://www.w3.org/2000/svg"
 width="180.000000pt" height="180.000000pt" viewBox="0 0 180.000000 180.000000"
 preserveAspectRatio="xMidYMid meet">

<g transform="translate(0.000000,180.000000) scale(0.100000,-0.100000)"
fill="#000000" stroke="none">
<path d="M1470 1405 l0 -355 30 0 30 0 0 355 0 355 -30 0 -30 0 0 -355z"/>
<path d="M1572 1738 c-13 -13 -16 -113 -5 -220 11 -122 29 -75 40 102 5 86 3
108 -9 117 -11 10 -17 10 -26 1z"/>
<path d="M46 1608 c-4 -68 -10 -221 -14 -341 l-7 -217 33 0 32 0 1 123 c1 67
4 156 8 197 l6 75 17 -105 c9 -58 23 -145 30 -194 7 -54 17 -90 26 -93 7 -3
15 -3 17 -1 3 3 18 91 34 197 17 106 32 196 35 199 3 3 6 -44 6 -105 0 -60 3
-151 6 -201 l7 -92 28 0 29 0 1 78 c1 71 2 74 10 33 21 -108 74 -151 118 -95
20 25 21 25 21 5 0 -17 6 -21 30 -21 l30 0 0 210 0 210 -30 0 c-22 0 -30 -5
-30 -17 -1 -17 -1 -17 -11 -1 -18 32 -48 41 -74 24 -31 -21 -54 -85 -64 -181
l-8 -80 -2 85 c0 47 -4 163 -8 258 l-6 172 -33 0 c-39 0 -35 12 -70 -208 -16
-97 -31 -165 -34 -155 -4 10 -19 96 -35 191 l-28 172 -32 0 -33 0 -6 -122z
m435 -275 c13 -35 11 -114 -4 -143 -31 -61 -70 -21 -70 72 0 92 48 139 74 71z"/>
<path d="M900 1390 l0 -340 30 0 29 0 3 128 3 127 40 5 c34 4 43 11 63 48 43
78 42 269 -2 334 -21 32 -25 33 -94 36 l-72 3 0 -341z m119 202 c10 -18 15
-61 13 -104 -2 -32 -26 -58 -53 -58 -17 0 -19 8 -19 90 0 89 0 90 25 90 13 0
29 -8 34 -18z"/>
<path d="M590 1555 c0 -58 -4 -77 -15 -81 -21 -8 -21 -104 -1 -104 11 0 15
-28 18 -138 2 -111 6 -143 21 -165 19 -30 48 -35 67 -12 17 20 4 115 -16 115
-11 0 -14 21 -14 100 l0 100 30 0 30 0 0 -112 c1 -174 20 -228 75 -214 27 7
28 8 22 63 -4 36 -12 60 -21 65 -13 7 -16 28 -16 103 0 88 1 95 20 95 17 0 20
7 20 50 0 43 -3 50 -20 50 -18 0 -20 7 -20 80 l0 80 -30 0 -29 0 -3 -77 c-3
-75 -4 -76 -30 -80 l-28 -4 0 81 0 80 -30 0 -30 0 0 -75z"/>
<path d="M1202 1460 c-20 -35 -32 -38 -32 -10 0 15 -7 20 -25 20 l-25 0 0
-210 0 -210 24 0 c24 0 24 1 28 133 4 147 15 182 53 175 20 -4 24 1 35 50 11
50 11 57 -6 69 -26 19 -33 17 -52 -17z"/>
<path d="M1320 1462 c-72 -73 -78 -297 -9 -393 38 -54 103 -29 130 50 10 29 9
35 -9 54 l-21 20 -18 -22 c-23 -28 -48 -20 -62 21 -6 17 -11 35 -11 39 0 5 29
9 65 9 l65 0 0 56 c0 82 -18 140 -52 169 -37 32 -43 31 -78 -3z m58 -74 c5 -7
12 -24 14 -38 3 -23 0 -25 -32 -25 -32 0 -35 2 -32 25 4 26 19 50 32 50 4 0
12 -6 18 -12z"/>
<path d="M1675 1466 c-50 -50 -44 -171 11 -237 19 -23 34 -47 34 -55 0 -23
-29 -28 -50 -9 -18 16 -19 15 -29 -22 -15 -52 -14 -56 12 -81 103 -96 180 139
81 247 -34 39 -43 65 -24 76 5 3 18 1 29 -4 15 -9 20 -7 25 12 13 47 7 73 -19
85 -36 16 -43 15 -70 -12z"/>
<path d="M260 620 l0 -360 25 0 25 0 0 360 0 360 -25 0 -25 0 0 -360z"/>
<path d="M40 605 l0 -345 55 0 c30 0 65 5 79 11 36 17 59 73 64 159 5 84 -10
152 -38 180 -17 17 -18 22 -5 47 20 37 20 192 1 238 -18 42 -42 55 -105 55
l-51 0 0 -345z m100 210 c16 -20 16 -101 0 -120 -7 -8 -19 -15 -26 -15 -11 0
-14 18 -14 75 0 78 11 95 40 60z m14 -281 c22 -21 22 -117 0 -138 -8 -9 -24
-16 -35 -16 -17 0 -19 8 -19 78 0 43 3 82 7 85 11 12 31 8 47 -9z"/>
<path d="M398 686 c-10 -7 -28 -35 -40 -62 -19 -41 -23 -66 -22 -154 0 -89 3
-112 22 -147 59 -113 138 -87 175 56 l14 54 6 -46 c8 -60 41 -124 67 -132 13
-4 31 0 45 9 l25 16 0 -38 c0 -40 -23 -82 -45 -82 -7 0 -22 12 -33 26 l-19 27
-21 -30 c-18 -25 -20 -36 -12 -63 20 -71 85 -102 137 -65 45 31 53 88 53 372
l0 263 -25 0 c-14 0 -28 -6 -31 -14 -5 -12 -9 -11 -25 5 -24 24 -41 24 -67 2
-22 -20 -52 -98 -53 -141 0 -19 -5 -11 -15 26 -31 116 -81 160 -136 118z m71
-142 c25 -56 6 -164 -29 -164 -35 0 -57 62 -45 130 12 69 50 87 74 34z m204
19 c21 -25 29 -101 14 -143 -16 -47 -52 -54 -68 -13 -14 35 -7 136 10 157 17
20 24 20 44 -1z"/>
</g>
</svg>
