<?xml version="1.0" standalone="no"?>
<!DOCTYPE svg PUBLIC "-//W3C//DTD SVG 20010904//EN"
 "http://www.w3.org/TR/2001/REC-SVG-20010904/DTD/svg10.dtd">
<svg version="1.0" xmlns="http://www.w3.org/2000/svg"
 width="471.000000pt" height="199.000000pt" viewBox="0 0 471.000000 199.000000"
 preserveAspectRatio="xMidYMid meet">

<g transform="translate(0.000000,199.000000) scale(0.100000,-0.100000)"
fill="#000000" stroke="none">
<path d="M3840 1555 l0 -395 80 0 80 0 0 395 0 395 -80 0 -80 0 0 -395z"/>
<path d="M4090 1910 c-25 -25 -25 -75 -2 -210 l17 -95 31 -3 32 -3 26 110 c35
144 36 179 7 203 -31 24 -86 23 -111 -2z"/>
<path d="M97 1603 c-16 -175 -31 -346 -34 -380 l-6 -63 85 0 85 0 6 48 c4 26
11 121 18 212 6 91 14 168 18 172 3 4 40 -91 82 -210 l76 -217 50 -3 50 -3 37
103 c20 57 56 159 80 227 l43 125 6 -55 c4 -30 11 -121 17 -204 16 -215 5
-195 106 -195 l86 0 -6 48 c-3 26 -17 178 -31 337 -14 160 -28 309 -31 333
l-5 42 -92 0 -92 0 -80 -211 c-44 -116 -82 -212 -85 -214 -3 -2 -42 92 -87
208 l-81 212 -94 3 -93 3 -28 -318z"/>
<path d="M2350 1540 l0 -380 85 0 85 0 0 139 0 138 93 5 c101 6 156 24 200 66
93 88 100 247 14 337 -61 63 -112 75 -314 75 l-163 0 0 -380z m311 217 c32
-21 34 -27 34 -76 0 -47 -3 -56 -27 -74 -18 -14 -48 -22 -88 -25 l-60 -4 0
101 0 101 54 0 c39 0 62 -6 87 -23z"/>
<path d="M1538 1723 l-3 -88 -32 -3 -33 -3 0 -59 0 -59 33 -3 32 -3 5 -130 c6
-146 19 -183 76 -210 57 -27 194 -13 194 19 0 7 -7 36 -16 65 -15 50 -16 52
-44 46 -40 -9 -50 15 -50 124 l0 91 74 0 74 0 4 -122 c6 -185 41 -238 159
-238 53 0 119 15 119 28 0 3 -7 32 -17 65 -15 54 -18 58 -40 52 -44 -11 -53 8
-53 116 l0 99 50 0 50 0 0 60 0 60 -50 0 -50 0 0 90 0 90 -85 0 -85 0 0 -90 0
-90 -75 0 -75 0 0 90 0 90 -80 0 -79 0 -3 -87z"/>
<path d="M1061 1638 c-61 -14 -142 -95 -160 -161 -27 -94 1 -208 66 -269 77
-74 218 -79 296 -10 16 14 17 13 17 -11 0 -27 0 -27 80 -27 l80 0 0 235 0 235
-80 0 c-72 0 -80 -2 -80 -19 0 -19 -2 -19 -42 4 -52 28 -118 37 -177 23z m159
-143 c41 -21 60 -53 60 -103 0 -35 -6 -49 -29 -73 -25 -24 -38 -29 -79 -29
-40 0 -54 5 -75 26 -54 54 -40 151 25 179 43 18 62 18 98 0z"/>
<path d="M3176 1636 c-21 -8 -51 -27 -67 -42 l-29 -28 0 32 0 32 -80 0 -80 0
0 -235 0 -235 79 0 80 0 3 144 c3 138 4 146 28 171 22 23 31 26 75 23 27 -3
57 -8 66 -12 12 -5 22 8 47 64 l31 71 -23 9 c-47 17 -92 20 -130 6z"/>
<path d="M3515 1644 c-92 -23 -164 -77 -196 -149 -24 -53 -24 -147 0 -200 24
-54 100 -119 155 -135 108 -30 248 6 303 77 l25 32 -59 29 -58 30 -30 -24
c-43 -34 -121 -34 -159 1 -14 13 -26 33 -26 45 0 19 5 20 170 20 l170 0 0 33
c0 94 -54 182 -135 218 -43 19 -127 31 -160 23z m88 -115 c21 -9 47 -46 47
-64 0 -3 -40 -5 -90 -5 -100 0 -111 9 -65 55 26 27 68 32 108 14z"/>
<path d="M4433 1640 c-94 -19 -143 -70 -143 -147 0 -58 37 -98 128 -140 62
-29 73 -38 70 -56 -5 -34 -66 -35 -124 -3 l-44 25 -30 -52 c-16 -29 -30 -55
-30 -59 0 -4 19 -18 43 -30 35 -19 57 -23 142 -23 162 0 220 43 212 159 -3 54
-7 62 -41 92 -21 18 -67 43 -103 55 -55 18 -64 24 -61 43 3 18 9 21 53 20 28
-1 61 -5 75 -9 23 -6 28 -2 48 40 12 25 22 48 22 51 0 11 -68 32 -120 37 -30
3 -74 1 -97 -3z"/>
<path d="M670 685 l0 -395 80 0 80 0 0 395 0 395 -80 0 -80 0 0 -395z"/>
<path d="M100 671 l0 -381 168 0 c189 0 247 11 298 58 53 48 67 85 62 168 -4
88 -22 118 -94 154 l-49 26 32 32 c39 39 57 100 48 161 -10 65 -38 106 -93
133 -42 21 -64 23 -209 26 l-163 4 0 -381z m278 216 c49 -45 12 -121 -65 -133
l-43 -7 0 88 0 87 43 -7 c23 -4 52 -16 65 -28z m32 -302 c49 -25 55 -104 10
-136 -14 -11 -51 -22 -87 -25 l-63 -7 0 92 0 91 55 0 c31 0 69 -7 85 -15z"/>
<path d="M1071 770 c-202 -42 -280 -271 -141 -411 62 -62 125 -83 234 -77 92
5 142 26 192 80 35 37 64 88 65 115 0 10 6 -1 13 -24 20 -62 51 -107 98 -139
36 -25 52 -29 122 -32 65 -3 88 1 119 16 l37 20 0 -35 c0 -45 -14 -69 -50 -88
-53 -27 -145 -13 -178 28 -13 15 -19 14 -75 -15 -34 -16 -64 -32 -65 -33 -8
-7 33 -65 59 -84 83 -61 260 -69 358 -16 61 33 95 79 110 145 6 25 11 156 11
293 l0 247 -85 0 c-71 0 -85 -3 -85 -16 0 -9 -3 -14 -7 -12 -123 63 -238 54
-309 -24 -29 -31 -64 -102 -65 -130 -1 -22 -1 -22 -8 2 -42 139 -196 222 -350
190z m119 -145 c41 -21 60 -53 60 -103 0 -35 -6 -49 -29 -73 -25 -24 -38 -29
-79 -29 -40 0 -54 5 -75 26 -54 54 -40 151 25 179 43 18 62 18 98 0z m565 -1
c70 -33 83 -129 24 -178 -72 -61 -179 -16 -179 74 0 52 13 76 53 100 39 24 59
25 102 4z"/>
</g>
</svg>
